<svg version="1.0" xmlns="http://www.w3.org/2000/svg"
 width="256.000000pt" height="256.000000pt" viewBox="0 0 256.000000 256.000000"
 preserveAspectRatio="xMidYMid meet">

<g transform="translate(0.000000,256.000000) scale(0.100000,-0.100000)"
fill="#000000" stroke="none">
<path d="M226 2381 c-16 -11 -38 -34 -50 -53 -21 -32 -21 -41 -21 -588 0 -515
1 -557 18 -588 24 -43 72 -72 122 -72 37 0 44 5 77 47 l37 48 -62 3 c-34 2
-67 8 -74 14 -18 15 -19 1078 -1 1096 17 17 1079 17 1096 0 9 -9 12 -114 12
-410 l0 -398 -97 0 c-163 0 -203 -40 -203 -202 l0 -98 -131 0 -130 0 38 -49
38 -50 90 -3 90 -3 5 -90 5 -91 41 -37 c23 -20 44 -37 48 -37 3 0 6 119 6 264
0 227 2 267 16 280 14 14 77 16 548 16 484 0 535 -2 547 -17 12 -13 14 -111
14 -545 l0 -530 -24 -19 c-22 -18 -46 -19 -540 -19 -599 0 -561 -6 -561 91 0
32 -3 59 -6 59 -3 0 -26 -17 -50 -37 -43 -36 -45 -40 -41 -80 6 -53 27 -87 70
-110 30 -17 75 -18 594 -18 552 0 562 0 589 21 15 11 37 33 48 48 21 27 21 37
21 589 0 561 0 562 -22 597 -42 67 -26 64 -483 70 l-415 5 -5 415 c-5 455 -3
439 -67 481 -26 18 -60 19 -593 19 -539 0 -566 -1 -594 -19z"/>
<path d="M820 2100 l0 -50 -205 0 -205 0 0 -50 0 -50 306 0 306 0 -7 -32 c-11
-56 -62 -151 -111 -206 l-47 -53 -54 53 c-30 29 -75 81 -99 115 l-45 62 -44
-21 -44 -22 21 -38 c12 -21 57 -78 100 -128 l78 -89 -76 -45 c-42 -25 -105
-57 -139 -71 l-63 -27 16 -48 15 -48 49 19 c71 28 144 66 218 114 l66 42 34
-24 c40 -28 115 -67 147 -77 19 -6 25 -1 38 30 8 20 15 42 14 48 0 6 -26 23
-57 39 -103 49 -102 47 -43 114 59 66 108 159 126 236 l11 52 77 3 77 3 0 49
0 50 -180 0 -180 0 0 50 0 50 -50 0 -50 0 0 -50z"/>
<path d="M495 1134 c-66 -80 -121 -149 -123 -154 -2 -6 26 -10 67 -10 l71 0 0
-100 0 -100 105 0 105 0 0 100 0 99 74 3 73 3 -121 147 c-66 80 -123 149 -126
152 -3 2 -59 -61 -125 -140z"/>
<path d="M1690 1206 c0 -2 -58 -158 -130 -347 -71 -189 -130 -348 -130 -352 0
-4 28 -7 61 -5 l62 3 30 83 30 82 128 0 c91 0 130 -4 136 -12 4 -7 19 -44 33
-83 l25 -70 63 -3 c34 -2 62 0 62 4 0 4 -59 164 -132 356 l-132 348 -53 0
c-29 0 -53 -2 -53 -4z m104 -301 c25 -71 46 -133 46 -137 0 -4 -45 -8 -100 -8
-55 0 -100 1 -100 3 0 6 91 261 96 269 9 14 9 13 58 -127z"/>
<path d="M970 785 l0 -75 -227 0 -228 0 100 -100 100 -100 127 0 127 0 3 -77
3 -76 153 128 c83 71 151 129 150 131 -45 40 -295 244 -300 244 -5 0 -8 -34
-8 -75z"/>
</g>
</svg>
