<svg version="1.0" xmlns="http://www.w3.org/2000/svg"
 width="100.000000pt" height="100.000000pt" viewBox="0 0 100.000000 100.000000"
 preserveAspectRatio="xMidYMid meet">

<g transform="translate(0.000000,100.000000) scale(0.100000,-0.100000)"
fill="#000000" stroke="none">
<path d="M65 795 l-25 -24 0 -271 0 -271 25 -24 24 -25 411 0 411 0 24 25 25
24 0 271 0 271 -25 24 -24 25 -411 0 -411 0 -24 -25z m843 -27 c17 -17 17
-519 0 -536 -17 -17 -799 -17 -816 0 -17 17 -17 519 0 536 17 17 799 17 816 0z"/>
<path d="M295 690 c-36 -14 -49 -40 -51 -103 -2 -47 2 -69 16 -93 30 -47 25
-61 -27 -86 -50 -24 -81 -64 -70 -91 6 -15 27 -17 177 -17 150 0 171 2 177 17
11 27 -20 67 -70 91 -51 24 -58 42 -30 82 17 24 27 119 17 153 -6 19 -74 57
-101 56 -10 0 -27 -4 -38 -9z m80 -46 c21 -14 24 -23 22 -63 -2 -25 -11 -63
-21 -83 -28 -57 -19 -89 31 -113 84 -41 78 -45 -67 -45 -145 0 -151 4 -67 45
50 24 59 56 31 113 -24 50 -28 126 -8 146 20 20 48 20 79 0z"/>
<path d="M565 609 c-15 -24 16 -30 141 -27 107 3 129 6 129 18 0 12 -23 15
-132 18 -89 2 -134 -1 -138 -9z"/>
<path d="M565 509 c-15 -24 16 -30 141 -27 107 3 129 6 129 18 0 12 -23 15
-132 18 -89 2 -134 -1 -138 -9z"/>
<path d="M565 409 c-15 -24 16 -30 141 -27 107 3 129 6 129 18 0 12 -23 15
-132 18 -89 2 -134 -1 -138 -9z"/>
</g>
</svg>
