<?xml version="1.0" standalone="no"?>
<!DOCTYPE svg PUBLIC "-//W3C//DTD SVG 20010904//EN"
 "http://www.w3.org/TR/2001/REC-SVG-20010904/DTD/svg10.dtd">
<svg version="1.0" xmlns="http://www.w3.org/2000/svg"
 width="139.000000pt" height="114.000000pt" viewBox="0 0 139.000000 114.000000"
 preserveAspectRatio="xMidYMid meet">

<g transform="translate(0.000000,114.000000) scale(0.100000,-0.100000)"
fill="#000000" stroke="none">
<path d="M595 1129 c-143 -21 -273 -87 -380 -193 -81 -80 -134 -164 -173 -275
-23 -67 -26 -91 -27 -206 0 -116 3 -139 28 -217 27 -81 99 -208 122 -215 6 -1
72 106 149 238 l139 240 18 -30 c10 -17 30 -54 44 -82 31 -60 71 -82 145 -77
l48 3 -125 213 -126 213 -37 -63 c-97 -165 -239 -415 -245 -431 -12 -30 -23
-19 -41 41 -27 87 -25 257 5 342 70 201 240 352 446 394 27 6 32 2 51 -31 64
-117 578 -983 583 -983 9 0 67 88 96 147 74 150 85 351 28 514 -81 234 -272
400 -521 454 l-34 7 30 -54 c27 -47 39 -57 110 -93 170 -86 269 -196 323 -360
30 -90 33 -249 6 -337 -10 -32 -21 -58 -25 -58 -4 1 -115 186 -247 411 -132
226 -252 430 -268 455 -29 47 -27 47 -122 33z"/>
<path d="M540 891 c-24 -39 -30 -57 -25 -78 3 -15 79 -152 169 -303 l162 -275
-226 -5 c-124 -3 -231 -9 -238 -13 -11 -8 -62 -99 -62 -112 0 -3 167 -5 370
-5 204 0 370 4 370 8 0 4 -41 78 -91 163 -50 84 -154 262 -231 394 -78 132
-146 248 -153 258 -11 16 -16 13 -45 -32z"/>
</g>
</svg>
