<svg version="1.0" xmlns="http://www.w3.org/2000/svg"
 width="512.000000pt" height="512.000000pt" viewBox="0 0 512.000000 512.000000"
 preserveAspectRatio="xMidYMid meet">

<g transform="translate(0.000000,512.000000) scale(0.100000,-0.100000)"
fill="#000000" stroke="none">
<path d="M2551 4342 c-49 -24 -81 -89 -81 -164 0 -116 50 -292 132 -467 l40
-86 29 60 c88 186 139 362 139 480 0 94 -18 138 -69 172 -43 29 -139 32 -190
5z"/>
<path d="M1425 3886 c-17 -7 -46 -28 -64 -47 -130 -130 -38 -272 271 -418 57
-27 136 -61 176 -75 l73 -26 -6 22 c-4 13 -25 68 -46 123 -83 210 -193 371
-282 414 -50 24 -79 26 -122 7z"/>
<path d="M2472 3459 c-345 -57 -627 -325 -718 -679 -28 -108 -25 -315 4 -425
72 -263 242 -470 483 -584 134 -65 221 -84 379 -84 142 -1 223 13 327 54 l53
21 63 -25 c95 -38 203 -57 327 -57 242 0 439 77 612 239 343 321 381 846 88
1215 -94 118 -210 205 -360 269 -200 84 -460 89 -655 11 l-62 -25 -89 30 c-49
16 -118 35 -154 40 -76 13 -223 12 -298 0z m265 -235 c21 -4 18 -10 -41 -83
-163 -201 -234 -466 -192 -708 30 -172 105 -333 212 -452 l45 -50 -36 -7 c-59
-11 -235 2 -290 21 -121 42 -179 78 -270 170 -93 93 -130 153 -172 276 -28 84
-25 301 5 389 71 200 236 364 426 422 112 34 220 42 313 22z"/>
<path d="M943 2730 c-80 -19 -116 -71 -117 -168 0 -70 16 -100 75 -140 32 -22
41 -24 144 -19 125 5 230 34 414 115 l105 46 -90 43 c-207 99 -422 149 -531
123z"/>
<path d="M1730 1757 c-397 -161 -532 -330 -378 -473 45 -42 69 -54 115 -54 84
0 179 93 266 258 43 83 127 282 127 302 0 16 -20 11 -130 -33z"/>
<path d="M2572 1383 c-178 -399 -160 -633 46 -633 116 0 172 63 172 192 0 118
-40 254 -141 486 -13 28 -26 52 -29 52 -3 0 -25 -44 -48 -97z"/>
</g>
</svg>
